{
  "accessors": [
    {
      "bufferView": 2,
      "componentType": 5126,
      "count": 220,
      "max": [
        61.52831268310547,
        38.65938186645508,
        61.52831268310547
      ],
      "min": [
        -61.52831268310547,
        0.0,
        -61.52831268310547
      ],
      "type": "VEC3"
    },
    {
      "bufferView": 2,
      "byteOffset": 2640,
      "componentType": 5126,
      "count": 220,
      "max": [
        1.0,
        0.0,
        1.0
      ],
      "min": [
        -1.0,
        0.0,
        -0.9995067119598389
      ],
      "type": "VEC3"
    },
    {
      "bufferView": 1,
      "componentType": 5126,
      "count": 220,
      "max": [
        1.0,
        0.9908827543258667
      ],
      "min": [
        0.0,
        0.0091172456741333
      ],
      "type": "VEC2"
    },
    {
      "bufferView": 0,
      "componentType": 5125,
      "count": 600,
      "type": "SCALAR"
    },
    {
      "bufferView": 2,
      "byteOffset": 5280,
      "componentType": 5126,
      "count": 439,
      "max": [
        179.1008758544922,
        179.10086059570313,
        179.10089111328125
      ],
      "min": [
        -179.1008758544922,
        -179.10086059570313,
        -179.10092163085938
      ],
      "type": "VEC3"
    },
    {
      "bufferView": 2,
      "byteOffset": 10548,
      "componentType": 5126,
      "count": 439,
      "max": [
        1.0,
        1.0,
        1.0
      ],
      "min": [
        -1.0,
        -1.0,
        -1.0
      ],
      "type": "VEC3"
    },
    {
      "bufferView": 1,
      "byteOffset": 1760,
      "componentType": 5126,
      "count": 439,
      "max": [
        1.0000001192092896,
        1.0
      ],
      "min": [
        0.0,
        0.0
      ],
      "type": "VEC2"
    },
    {
      "bufferView": 0,
      "byteOffset": 2400,
      "componentType": 5125,
      "count": 2280,
      "type": "SCALAR"
    },
    {
      "bufferView": 2,
      "byteOffset": 15816,
      "componentType": 5126,
      "count": 220,
      "max": [
        81.5102310180664,
        53.161502838134766,
        81.51023864746094
      ],
      "min": [
        -81.5102310180664,
        1.937577486038208,
        -81.51022338867188
      ],
      "type": "VEC3"
    },
    {
      "bufferView": 2,
      "byteOffset": 18456,
      "componentType": 5126,
      "count": 220,
      "max": [
        0.9998138546943665,
        0.0,
        0.9998138546943665
      ],
      "min": [
        -0.9998138546943665,
        0.0,
        -0.9998138546943665
      ],
      "type": "VEC3"
    },
    {
      "bufferView": 1,
      "byteOffset": 5272,
      "componentType": 5126,
      "count": 220,
      "max": [
        1.0,
        0.9908827543258667
      ],
      "min": [
        0.0,
        0.0091172456741333
      ],
      "type": "VEC2"
    },
    {
      "bufferView": 0,
      "byteOffset": 11520,
      "componentType": 5125,
      "count": 600,
      "type": "SCALAR"
    },
    {
      "bufferView": 2,
      "byteOffset": 21096,
      "componentType": 5126,
      "count": 220,
      "max": [
        99.420166015625,
        70.32723999023438,
        99.420166015625
      ],
      "min": [
        -99.420166015625,
        7.859428405761719,
        -99.420166015625
      ],
      "type": "VEC3"
    },
    {
      "bufferView": 2,
      "byteOffset": 23736,
      "componentType": 5126,
      "count": 220,
      "max": [
        0.9999955892562866,
        0.0,
        0.9999955892562866
      ],
      "min": [
        -0.9999955892562866,
        0.0,
        -0.9999955892562866
      ],
      "type": "VEC3"
    },
    {
      "bufferView": 1,
      "byteOffset": 7032,
      "componentType": 5126,
      "count": 220,
      "max": [
        1.0,
        0.9908827543258667
      ],
      "min": [
        0.0,
        0.0091172456741333
      ],
      "type": "VEC2"
    },
    {
      "bufferView": 0,
      "byteOffset": 13920,
      "componentType": 5125,
      "count": 600,
      "type": "SCALAR"
    }
  ],
  "asset": {
    "extras": {
      "author": "PolyOne Studio (https://sketchfab.com/polyone)",
      "license": "CC-BY-4.0 (http://creativecommons.org/licenses/by/4.0/)",
      "source": "https://sketchfab.com/3d-models/free-pack-2d-3d-plane-landscape-8d74166887834bec9c6aeebb697c7fa2",
      "title": "Free Pack - 2D & 3D Plane Landscape"
    },
    "generator": "Sketchfab-16.95.0",
    "version": "2.0"
  },
  "bufferViews": [
    {
      "buffer": 0,
      "byteLength": 16320,
      "name": "floatBufferViews",
      "target": 34963
    },
    {
      "buffer": 0,
      "byteLength": 8792,
      "byteOffset": 16320,
      "byteStride": 8,
      "name": "floatBufferViews",
      "target": 34962
    },
    {
      "buffer": 0,
      "byteLength": 26376,
      "byteOffset": 25112,
      "byteStride": 12,
      "name": "floatBufferViews",
      "target": 34962
    }
  ],
  "buffers": [
    {
      "byteLength": 51488,
      "uri": "scene.bin"
    }
  ],
  "extensionsUsed": [
    "KHR_materials_unlit"
  ],
  "images": [
    {
      "uri": "textures/M_PlaneLandscape_v01_baseColor.png"
    },
    {
      "uri": "textures/M_Skybox_v01_baseColor.png"
    }
  ],
  "materials": [
    {
      "alphaCutoff": 0.08380977922980336,
      "alphaMode": "MASK",
      "doubleSided": true,
      "extensions": {
        "KHR_materials_unlit": {}
      },
      "name": "M_PlaneLandscape_v01",
      "pbrMetallicRoughness": {
        "baseColorFactor": [
          0.05111940639083955,
          0.16460807970228097,
          0.07784831278526946,
          1.0
        ],
        "baseColorTexture": {
          "index": 0
        },
        "metallicFactor": 0.0
      }
    },
    {
      "alphaCutoff": 0.23009593934000558,
      "alphaMode": "MASK",
      "doubleSided": true,
      "extensions": {
        "KHR_materials_unlit": {}
      },
      "name": "M_Skybox_v01",
      "pbrMetallicRoughness": {
        "baseColorFactor": [
          0.8555843130123538,
          0.9406652057935939,
          0.5018124453063092,
          1.0
        ],
        "baseColorTexture": {
          "index": 1
        },
        "metallicFactor": 0.0
      }
    },
    {
      "alphaCutoff": 0.10819080591483707,
      "alphaMode": "MASK",
      "doubleSided": true,
      "extensions": {
        "KHR_materials_unlit": {}
      },
      "name": "M_PlaneLandscape_v02",
      "pbrMetallicRoughness": {
        "baseColorFactor": [
          0.16166942599237172,
          0.3154568193938017,
          0.1672386147319512,
          1.0
        ],
        "baseColorTexture": {
          "index": 0
        },
        "metallicFactor": 0.0
      }
    },
    {
      "alphaCutoff": 0.5104777462178932,
      "alphaMode": "MASK",
      "doubleSided": true,
      "extensions": {
        "KHR_materials_unlit": {}
      },
      "name": "M_PlaneLandscape_v03",
      "pbrMetallicRoughness": {
        "baseColorFactor": [
          0.37341826866792655,
          0.5904156236851367,
          0.3767630978471821,
          1.0
        ],
        "baseColorTexture": {
          "index": 0
        },
        "metallicFactor": 0.0
      }
    }
  ],
  "meshes": [
    {
      "name": "SM_PlaneLandscape_v01_M_PlaneLandscape_v01_0",
      "primitives": [
        {
          "attributes": {
            "NORMAL": 1,
            "POSITION": 0,
            "TEXCOORD_0": 2
          },
          "indices": 3,
          "material": 0,
          "mode": 4
        }
      ]
    },
    {
      "name": "SM_Skybox_v01_M_Skybox_v01_0",
      "primitives": [
        {
          "attributes": {
            "NORMAL": 5,
            "POSITION": 4,
            "TEXCOORD_0": 6
          },
          "indices": 7,
          "material": 1,
          "mode": 4
        }
      ]
    },
    {
      "name": "SM_PlaneLandscape_v02_M_PlaneLandscape_v02_0",
      "primitives": [
        {
          "attributes": {
            "NORMAL": 9,
            "POSITION": 8,
            "TEXCOORD_0": 10
          },
          "indices": 11,
          "material": 2,
          "mode": 4
        }
      ]
    },
    {
      "name": "SM_PlaneLandscape_v03_M_PlaneLandscape_v03_0",
      "primitives": [
        {
          "attributes": {
            "NORMAL": 13,
            "POSITION": 12,
            "TEXCOORD_0": 14
          },
          "indices": 15,
          "material": 3,
          "mode": 4
        }
      ]
    }
  ],
  "nodes": [
    {
      "children": [
        1
      ],
      "matrix": [
        1.0,
        0.0,
        0.0,
        0.0,
        0.0,
        2.220446049250313e-16,
        -1.0,
        0.0,
        0.0,
        1.0,
        2.220446049250313e-16,
        0.0,
        0.0,
        0.0,
        0.0,
        1.0
      ],
      "name": "Sketchfab_model"
    },
    {
      "children": [
        2
      ],
      "matrix": [
        0.009999999776482582,
        0.0,
        0.0,
        0.0,
        0.0,
        0.0,
        0.009999999776482582,
        0.0,
        0.0,
        -0.009999999776482582,
        0.0,
        0.0,
        0.0,
        0.0,
        0.0,
        1.0
      ],
      "name": "9605b63886e9499cb38a41de8966e3c8.fbx"
    },
    {
      "children": [
        3,
        5,
        7,
        9
      ],
      "name": "RootNode"
    },
    {
      "children": [
        4
      ],
      "name": "SM_PlaneLandscape_v01"
    },
    {
      "mesh": 0,
      "name": "SM_PlaneLandscape_v01_M_PlaneLandscape_v01_0"
    },
    {
      "children": [
        6
      ],
      "name": "SM_Skybox_v01"
    },
    {
      "mesh": 1,
      "name": "SM_Skybox_v01_M_Skybox_v01_0"
    },
    {
      "children": [
        8
      ],
      "name": "SM_PlaneLandscape_v02"
    },
    {
      "mesh": 2,
      "name": "SM_PlaneLandscape_v02_M_PlaneLandscape_v02_0"
    },
    {
      "children": [
        10
      ],
      "name": "SM_PlaneLandscape_v03"
    },
    {
      "mesh": 3,
      "name": "SM_PlaneLandscape_v03_M_PlaneLandscape_v03_0"
    }
  ],
  "samplers": [
    {
      "magFilter": 9729,
      "minFilter": 9987,
      "wrapS": 10497,
      "wrapT": 10497
    }
  ],
  "scene": 0,
  "scenes": [
    {
      "name": "Sketchfab_Scene",
      "nodes": [
        0
      ]
    }
  ],
  "textures": [
    {
      "sampler": 0,
      "source": 0
    },
    {
      "sampler": 0,
      "source": 1
    }
  ]
}
